<svg xmlns="http://www.w3.org/2000/svg" viewBox="0 0 100 100" width="100" height="100">
  <!-- Sun -->
  <circle cx="35" cy="35" r="12" fill="#FDB813"/>
  <g stroke="#FDB813" stroke-width="3" stroke-linecap="round">
    <line x1="35" y1="15" x2="35" y2="20"/>
    <line x1="35" y1="50" x2="35" y2="55"/>
    <line x1="15" y1="35" x2="20" y2="35"/>
    <line x1="50" y1="35" x2="55" y2="35"/>
    <line x1="21" y1="21" x2="25" y2="25"/>
    <line x1="45" y1="45" x2="49" y2="49"/>
    <line x1="21" y1="49" x2="25" y2="45"/>
    <line x1="45" y1="25" x2="49" y2="21"/>
  </g>

  <!-- Cloud -->
  <path d="M 30 50 Q 25 45 30 42 Q 32 38 38 38 Q 42 35 48 38 Q 55 38 58 45 Q 65 45 65 52 Q 65 58 58 58 L 30 58 Q 25 58 25 52 Q 25 48 30 50 Z"
        fill="#E8F4F8" stroke="#B0D4E3" stroke-width="2"/>

  <!-- Snowflakes -->
  <g fill="none" stroke="#7EC8E3" stroke-width="1.5" stroke-linecap="round">
    <!-- Flake 1 -->
    <line x1="30" y1="65" x2="30" y2="72"/>
    <line x1="26.5" y1="68.5" x2="33.5" y2="68.5"/>
    <line x1="27.5" y1="66" x2="32.5" y2="71"/>
    <line x1="27.5" y1="71" x2="32.5" y2="66"/>

    <!-- Flake 2 -->
    <line x1="45" y1="68" x2="45" y2="75"/>
    <line x1="41.5" y1="71.5" x2="48.5" y2="71.5"/>
    <line x1="42.5" y1="69" x2="47.5" y2="74"/>
    <line x1="42.5" y1="74" x2="47.5" y2="69"/>

    <!-- Flake 3 -->
    <line x1="55" y1="63" x2="55" y2="70"/>
    <line x1="51.5" y1="66.5" x2="58.5" y2="66.5"/>
    <line x1="52.5" y1="64" x2="57.5" y2="69"/>
    <line x1="52.5" y1="69" x2="57.5" y2="64"/>
  </g>

  <!-- Ottawa/Canada Maple Leaf -->
  <g transform="translate(75, 75) scale(0.4)" fill="#E74C3C">
    <path d="M 0 -20 L 5 -8 L 15 -12 L 8 -2 L 18 2 L 8 2 L 8 15 L 0 8 L -8 15 L -8 2 L -18 2 L -8 -2 L -15 -12 L -5 -8 Z"/>
  </g>
</svg>
